<svg width="400" height="400" viewBox="0 0 400 400" fill="none" xmlns="http://www.w3.org/2000/svg">
<path d="M10 360H330" stroke="#111111" stroke-width="4" stroke-linecap="round"/>
<path d="M30 360V264C30 257.635 32.5286 251.53 37.0294 247.029C41.5303 242.529 47.6348 240 54 240C60.3652 240 66.4697 242.529 70.9706 247.029C75.4714 251.53 78 257.635 78 264V360H30Z" fill="#E8E8ED" stroke="#111111" stroke-width="4" stroke-linejoin="round"/>
<path d="M100 360V204C100 197.635 102.529 191.53 107.029 187.029C111.53 182.529 117.635 180 124 180C130.365 180 136.47 182.529 140.971 187.029C145.471 191.53 148 197.635 148 204V360H100Z" fill="#E8E8ED" stroke="#111111" stroke-width="4" stroke-linejoin="round"/>
<path d="M170 360V234C170 227.635 172.529 221.53 177.029 217.029C181.53 212.529 187.635 210 194 210C200.365 210 206.47 212.529 210.971 217.029C215.471 221.53 218 227.635 218 234V360H170Z" fill="#E8E8ED" stroke="#111111" stroke-width="4" stroke-linejoin="round"/>
<path d="M240 360V144C240 137.635 242.529 131.53 247.029 127.029C251.53 122.529 257.635 120 264 120C270.365 120 276.47 122.529 280.971 127.029C285.471 131.53 288 137.635 288 144V360H240Z" fill="#E8E8ED" stroke="#111111" stroke-width="4" stroke-linejoin="round"/>
<path d="M10 280L54 240L124 180L194 210L264 120L310 100" stroke="#111111" stroke-width="4" stroke-linecap="round" stroke-linejoin="round"/>
<path d="M54 246C57.3137 246 60 243.314 60 240C60 236.686 57.3137 234 54 234C50.6863 234 48 236.686 48 240C48 243.314 50.6863 246 54 246Z" fill="#F5F5F7" stroke="#111111" stroke-width="4"/>
<path d="M124 186C127.314 186 130 183.314 130 180C130 176.686 127.314 174 124 174C120.686 174 118 176.686 118 180C118 183.314 120.686 186 124 186Z" fill="#F5F5F7" stroke="#111111" stroke-width="4"/>
<path d="M194 216C197.314 216 200 213.314 200 210C200 206.686 197.314 204 194 204C190.686 204 188 206.686 188 210C188 213.314 190.686 216 194 216Z" fill="#F5F5F7" stroke="#111111" stroke-width="4"/>
<path d="M264 126C267.314 126 270 123.314 270 120C270 116.686 267.314 114 264 114C260.686 114 258 116.686 258 120C258 123.314 260.686 126 264 126Z" fill="#F5F5F7" stroke="#111111" stroke-width="4"/>
<path d="M229 65H361C367.365 65 373.47 67.5286 377.971 72.0294C382.471 76.5303 385 82.6348 385 89V181C385 187.365 382.471 193.47 377.971 197.971C373.47 202.471 367.365 205 361 205H275L195 255L235 205H229C222.635 205 216.53 202.471 212.029 197.971C207.529 193.47 205 187.365 205 181V89C205 82.6348 207.529 76.5303 212.029 72.0294C216.53 67.5286 222.635 65 229 65Z" fill="#F5F5F7" stroke="#111111" stroke-width="4" stroke-linecap="round" stroke-linejoin="round"/>
<path d="M290 100C290 122 308 140 330 140C308 140 290 158 290 180C290 158 272 140 250 140C272 140 290 122 290 100Z" fill="url(#paint0_linear_1059_2929)" stroke="#111111" stroke-width="4" stroke-linecap="round" stroke-linejoin="round"/>
<defs>
<linearGradient id="paint0_linear_1059_2929" x1="250" y1="100" x2="330" y2="180" gradientUnits="userSpaceOnUse">
<stop stop-color="#4285F4"/>
<stop offset="0.5" stop-color="#9B72CB"/>
<stop offset="1" stop-color="#D96570"/>
</linearGradient>
</defs>
</svg>
