<svg width="105" height="40" viewBox="0 0 105 40" fill="none" xmlns="http://www.w3.org/2000/svg">
<g clip-path="url(#clip0_996_27)">
<path d="M70.8523 31.0407C71.703 31.3181 72.2543 30.0002 72.0714 31.286C71.9627 32.0504 72.1693 35.6452 73.7985 34.9155C75.7639 34.0354 76.2049 29.9807 78.8413 31.0213C81.425 32.0411 83.1821 34.732 86.0029 35.8017C90.9312 37.6707 95.9492 36.4229 100.968 35.5585" stroke="black" stroke-width="2.75795" stroke-linecap="round" stroke-linejoin="round"/>
<path d="M67.6774 32.8123C66.9447 32.5456 66.6236 31.7274 65.8675 31.4522C64.9154 31.1056 62.4104 34.8329 64.2244 35.5208C65.8583 36.1404 71.6728 33.2684 69.6338 31.987C68.7339 31.4215 64.682 31.0768 66.5301 31.7494" stroke="black" stroke-width="2.75795" stroke-linecap="round" stroke-linejoin="round"/>
<path d="M49.4573 32.4747C48.6291 32.8494 53.3175 32.3699 54.0552 30.343C54.6412 28.733 51.0822 31.0499 50.6768 31.801C49.4453 34.0825 51.2683 35.9093 53.6411 34.5867C56.8817 32.7803 55.3228 29.5501 56.7746 33.1013C59.2091 39.0562 63.0973 28.162 63.9897 28.4869" stroke="black" stroke-width="2.75795" stroke-linecap="round" stroke-linejoin="round"/>
<path d="M21.0659 21.9921C20.6785 21.7601 20.7171 20.6107 21.0059 21.4871C21.418 22.7376 21.3207 24.222 21.9546 25.3924" stroke="black" stroke-width="2.75795" stroke-linecap="round" stroke-linejoin="round"/>
<path d="M7.10307 8.03501C2.53402 4.43298 7.20917 2.71168 10.97 2.65291C22.2447 2.47671 35.1309 6.19658 42.7487 14.8616C46.156 18.7373 48.5846 23.7355 47.3 28.9605C46.0877 33.8916 39.7592 35.3032 35.3882 36.0458C28.7691 37.1703 21.314 37.5443 14.6882 36.3122C12.0405 35.8198 6.81475 35.1412 5.02646 32.8195" stroke="black" stroke-width="2.75795" stroke-linecap="round" stroke-linejoin="round"/>
</g>
<defs>
<clipPath id="clip0_996_27">
<rect width="105" height="40" fill="white"/>
</clipPath>
</defs>
</svg>
