<svg width="123" height="125" viewBox="0 0 123 125" fill="none" xmlns="http://www.w3.org/2000/svg">
<path d="M69.2945 34.4747C68.4663 34.8494 73.1546 34.3699 73.8924 32.343C74.4784 30.733 70.9193 33.0499 70.5139 33.801C69.2824 36.0825 71.1055 37.9093 73.4783 36.5867C76.7189 34.7803 75.16 31.5501 76.6118 35.1013C79.0462 41.0562 82.9344 30.162 83.8269 30.4869" stroke="white" stroke-width="2.75795" stroke-linecap="round" stroke-linejoin="round"/>
<path d="M87.5146 34.8123C86.7818 34.5456 86.4607 33.7274 85.7046 33.4522C84.7525 33.1056 82.2475 36.8329 84.0615 37.5208C85.6954 38.1404 91.5099 35.2684 89.471 33.987C88.5711 33.4215 84.5191 33.0768 86.3672 33.7494" stroke="white" stroke-width="2.75795" stroke-linecap="round" stroke-linejoin="round"/>
<path d="M90.6894 33.0407C91.5401 33.3181 92.0914 32.0002 91.9086 33.286C91.7998 34.0504 92.0064 37.6452 93.6357 36.9155C95.601 36.0354 96.0421 31.9807 98.6784 33.0213C101.262 34.0411 103.019 36.732 105.84 37.8017C110.768 39.6707 115.786 38.4229 120.805 37.5585" stroke="white" stroke-width="2.75795" stroke-linecap="round" stroke-linejoin="round"/>
<path d="M40.903 23.9921C40.5157 23.7601 40.5543 22.6107 40.8431 23.4871C41.2552 24.7376 41.1579 26.2221 41.7918 27.3924" stroke="white" stroke-width="2.75795" stroke-linecap="round" stroke-linejoin="round"/>
<path d="M26.9402 10.035C22.3712 6.43298 27.0463 4.71168 30.8072 4.65291C42.0818 4.47671 54.9681 8.19658 62.5859 16.8616C65.9932 20.7373 68.4218 25.7355 67.1372 30.9605C65.9248 35.8916 59.5963 37.3032 55.2254 38.0458C48.6062 39.1703 41.1511 39.5443 34.5253 38.3122C31.8777 37.8198 26.6519 37.1412 24.8636 34.8195" stroke="white" stroke-width="2.75795" stroke-linecap="round" stroke-linejoin="round"/>
<path d="M34.7652 45.5696C34.3045 46.5576 26.6439 44.7965 31.3415 46.6412C31.8506 46.8412 37.3746 48.9429 35.2431 49.2588C34.3939 49.3847 30.1268 49.9528 30.0389 51.0385" stroke="white" stroke-width="2.75795" stroke-linecap="round" stroke-linejoin="round"/>
<path d="M47.8459 58.7182C48.0508 58.8138 50.1629 59.585 49.6221 59.9237C48.8927 60.3805 46.9514 60.0357 46.1447 60.036C43.3592 60.037 40.5535 60.0321 37.783 60.3504C36.2 60.5324 34.2863 60.6037 32.8494 61.3756C32.752 61.4279 32.1614 62.0309 32.4572 61.8586C34.0229 60.9465 34.8459 57.9162 34.8083 56.3011C34.7555 54.0361 32.0429 51.3022 29.8526 53.3263C27.7293 55.2884 29.6893 57.8818 31.019 59.6617C31.8729 60.8047 32.309 60.6688 31.8523 60.9656C30.8638 61.6079 31.9371 63.5104 32.3631 64.1314C33.2057 65.3596 34.1903 66.7309 35.5734 67.3759C36.4112 67.7666 34.8101 65.8051 34.2699 65.5501C30.3775 63.7129 29.7351 68.81 32.9468 70.2052C33.3938 70.3994 31.9528 70.4392 31.6012 70.7768C31.461 70.9114 29.8199 72.4862 30.0689 72.693C31.7864 74.1194 38.9695 72.7421 36.9881 76.991" stroke="white" stroke-width="2.75795" stroke-linecap="round" stroke-linejoin="round"/>
<path d="M36.3118 88.3378C38.3729 89.1719 38.0709 83.7065 37.9041 83.1113C36.8804 79.4604 35.4295 81.9316 34.4871 83.9526C33.2927 86.5139 29.9901 91.5444 28.1764 86.0041C27.1103 82.7477 29.6837 78.5528 32.3315 82.4924" stroke="white" stroke-width="2.75795" stroke-linecap="round" stroke-linejoin="round"/>
<path d="M34.6409 98.6029C40.0576 98.0903 30.6504 86.3404 29.659 94.7038C29.4924 96.1092 31.999 102.326 33.9106 99.9673C34.7495 98.9324 35.9121 95.5122 34.1809 94.705" stroke="white" stroke-width="2.75795" stroke-linecap="round" stroke-linejoin="round"/>
<path d="M37.1544 101.711C37.9948 99.9084 25.9363 101.651 31.8575 105.129C32.6847 105.615 37.9494 107.224 37.0235 107.937C35.0713 109.441 32.9779 110.108 31.5149 112.283C29.2686 115.623 28.7638 119.262 28.7259 123.199" stroke="white" stroke-width="2.75795" stroke-linecap="round" stroke-linejoin="round"/>
</svg>
